<svg width="168" height="163" viewBox="0 0 168 163" fill="none" xmlns="http://www.w3.org/2000/svg">
<circle cx="36.979" cy="70.8035" r="36.979" fill="#FFCE01"/>
<path fill-rule="evenodd" clip-rule="evenodd" d="M36.6722 24.3898C39.3658 25.1642 41.8256 25.228 42.8217 24.666C45.3194 23.2567 42.9405 13.392 39.8298 10.0853C36.7187 6.77852 25.5966 7.95414 27.1093 15.752C27.6346 18.4583 29.387 20.5296 31.5557 22.0218L32.2867 36.5873L40.8837 34.284L36.6722 24.3898Z" fill="#FEC6C6"/>
<path fill-rule="evenodd" clip-rule="evenodd" d="M35.3067 6.78787C34.0361 6.745 32.298 7.08066 31.603 7.35492C31.7492 6.26941 31.6198 5.13847 31.2041 4.11494C30.8 3.12037 30.105 2.36765 29.4329 1.56369C29.1233 1.19312 28.7881 0.831886 28.3697 0.597104C27.9434 0.35787 27.4572 0.254808 26.9809 0.271141C26.4934 0.28785 26.0157 0.425288 25.5819 0.644937C25.3902 0.742109 25.2327 0.883829 25.0467 0.988876C24.8567 1.09646 24.7235 0.995382 24.541 0.906837C24.1007 0.693523 23.5361 0.681265 23.0697 0.747793C22.5462 0.822436 22.0405 1.03979 21.6015 1.33579C21.1742 1.62396 20.7923 2.00823 20.5547 2.48273C20.4489 2.69395 20.3634 2.925 20.3314 3.16335C20.3183 3.26117 20.3263 3.31493 20.2469 3.3707C20.1736 3.42234 20.0787 3.4487 20.0024 3.49958C19.2643 3.99154 18.7381 4.80361 18.5756 5.70877C18.4809 6.23685 18.5977 7.09059 18.8743 8.00845C19.1509 8.92632 20.635 11.117 21.6539 11.7881C22.5633 12.3871 23.7295 12.6308 24.7817 12.5923C24.325 13.5195 24.1383 14.5751 24.0702 15.6162C23.9963 16.747 24.0671 17.8824 24.2808 19.0014C24.4838 20.0645 24.7721 21.169 25.2902 22.1238C25.775 23.0167 26.4745 23.6683 27.4254 23.9458C27.8609 24.073 28.3094 24.1359 28.7566 24.1835C29.1973 24.2304 29.638 24.2727 30.0796 24.247C30.9154 24.1982 31.8204 23.9257 32.2618 23.1329C32.4206 22.8471 32.586 22.4973 32.6723 22.1772C32.7031 22.0621 32.7206 21.9876 32.6244 21.9089C32.509 21.8147 32.3494 21.7617 32.2172 21.6993C31.4626 21.3437 30.8959 20.7509 30.5789 19.951C30.257 19.1393 30.1926 17.9977 30.9103 17.4135C31.7964 16.6924 33.0441 16.9133 34.0686 17.1563C34.0898 15.714 34.5476 14.2979 35.6073 13.355C36.7797 12.3118 38.313 11.8157 39.5487 10.8591C39.8705 10.6098 40.1937 10.3381 40.378 9.9567C40.4547 9.79728 40.5406 9.5942 40.5396 9.41099C40.5375 9.17031 40.3417 9.02062 40.1824 8.8753C39.3381 8.1048 36.577 6.83074 35.3067 6.78787Z" fill="#191847"/>
<path fill-rule="evenodd" clip-rule="evenodd" d="M34.1727 66.261L47.6176 113.368L57.4273 148.088H64.5821L54.1578 66.261H34.1727Z" fill="#191847"/>
<path fill-rule="evenodd" clip-rule="evenodd" d="M30.5771 66.261C30.2659 90.5405 29.2055 103.783 28.8792 105.989C28.5525 108.195 23.6155 122.228 14.0677 148.088H21.4796C33.6344 123.28 40.4197 109.246 41.8352 105.989C43.2507 102.731 47.619 89.4886 54.1985 66.261H30.5771Z" fill="#2F3676"/>
<g filter="url(#filter0_d)">
<path fill-rule="evenodd" clip-rule="evenodd" d="M13.4052 154.752L13.7761 146.977H21.5638C27.1028 150.865 36.0268 153.272 36.0268 153.272V154.752H21.9347L17.1137 154.012V154.752H13.4052Z" fill="#191847"/>
</g>
<g filter="url(#filter1_d)">
<g filter="url(#filter2_d)">
<path fill-rule="evenodd" clip-rule="evenodd" d="M56.4234 154.752L56.7943 146.977H64.5821C70.1211 150.865 79.045 153.272 79.045 153.272V154.752H64.9529L60.132 154.012V154.752H56.4234Z" fill="#191847"/>
</g>
</g>
<path fill-rule="evenodd" clip-rule="evenodd" d="M8.64448 86.2129C9.65417 83.975 13.7867 61.339 13.7867 61.339L20.4207 61.1363C20.4207 61.1363 13.9837 85.5342 13.4611 86.9689C12.7822 88.8329 14.1364 91.4588 15.0546 93.2389C15.1967 93.5145 15.3283 93.7696 15.4403 93.9987C14.2718 94.5708 13.6794 93.9497 13.0548 93.295C12.3494 92.5558 11.603 91.7734 9.93912 92.6185C9.29627 92.9448 8.69046 93.3255 8.09856 93.697C6.0541 94.9813 4.1759 96.1613 1.51266 94.6465C1.09045 94.4065 0.604175 93.4632 1.67266 92.6753C4.33471 90.7127 8.15088 87.3072 8.64448 86.2129ZM77.0902 63.9621L64.4201 56.5745L62.4935 63.2667L74.6496 66.8646C78.3503 70.3821 80.3619 71.7993 80.6844 71.1155C80.9563 70.5392 80.646 70.0592 80.3601 69.6172C80.1376 69.2727 79.9297 68.9512 80.0236 68.6252C80.2379 67.8805 82.4591 67.723 84.5734 67.6631C86.6873 67.6035 85.9782 66.7362 85.4242 66.3295C83.1493 65.2752 80.3711 64.486 77.0902 63.9621Z" fill="#FEC6C6"/>
<path fill-rule="evenodd" clip-rule="evenodd" d="M36.1801 30.2441L39.9551 28.2137C47.7833 40.816 58.2056 52.5069 73.708 61.2007L71.3753 67.5621C58.2337 62.659 46.0032 59.2066 39.5764 49.5047C37.4196 46.2488 36.7985 34.483 36.1801 30.2441Z" fill="#C5CFD6"/>
<path fill-rule="evenodd" clip-rule="evenodd" d="M29.1432 70.8368C29.1432 70.8368 46.6873 69.623 56.2553 66.0562C57.0456 65.7614 56.9336 64.3733 56.3912 63.5135C47.948 50.1227 41.6825 38.2442 39.915 28.2208C38.4355 29.3244 34.2754 29.4678 34.2754 29.4678C28.8241 41.0796 27.5709 53.521 29.1432 70.8368Z" fill="#323337"/>
<path fill-rule="evenodd" clip-rule="evenodd" d="M32.0385 28.9697C32.2042 28.8101 32.2922 28.73 32.2922 28.73L32.3148 28.9207L35.3457 28.3866C35.6556 29.2539 36.4633 32.5293 37.6408 37.305C41.9198 54.6599 51.0841 91.8296 59.0109 105.275L21.8306 111.831C19.7292 95.3262 22.3219 74.6888 25.6521 56.9662C21.8415 62.37 17.8026 71.0142 15.7002 84.5889L8.42113 84.0318C10.1344 52.2463 28.1516 32.8326 31.6906 29.3107C31.7139 29.2128 31.7372 29.1156 31.7605 29.0187L32.0385 28.9697Z" fill="#DDE3E9"/>
<path fill-rule="evenodd" clip-rule="evenodd" d="M130.301 50.1243C128.29 51.3364 126.314 51.922 125.387 51.6829C123.061 51.0834 122.847 42.5753 124.647 39.221C126.446 35.8668 135.697 34.4049 136.163 41.0506C136.325 43.3571 135.357 45.4156 133.926 47.0952L136.492 59.0541H129.039L130.301 50.1243Z" fill="#FEC6C6"/>
<path fill-rule="evenodd" clip-rule="evenodd" d="M127.591 35.5679C128.609 35.2574 130.087 35.152 130.709 35.2233C130.355 34.3757 130.215 33.4313 130.33 32.5119C130.441 31.6185 130.84 30.8577 131.209 30.0606C131.379 29.6931 131.572 29.3277 131.86 29.0466C132.153 28.7603 132.524 28.5713 132.912 28.4811C133.31 28.3888 133.726 28.3965 134.125 28.4803C134.301 28.5173 134.459 28.5979 134.632 28.6428C134.809 28.6887 134.895 28.5778 135.024 28.4665C135.333 28.1981 135.787 28.0656 136.179 28.0182C136.619 27.9651 137.075 28.0314 137.494 28.1759C137.902 28.3166 138.294 28.545 138.589 28.8778C138.721 29.026 138.84 29.1946 138.918 29.3808C138.949 29.4572 138.955 29.5024 139.031 29.5304C139.101 29.5563 139.184 29.5571 139.257 29.5818C139.96 29.8201 140.562 30.3637 140.89 31.0618C141.081 31.469 141.171 32.186 141.146 32.9897C141.121 33.7933 140.396 35.8903 139.717 36.6551C139.111 37.3378 138.221 37.7884 137.361 37.9856C137.932 38.6375 138.312 39.4523 138.592 40.2809C138.897 41.1809 139.086 42.1162 139.156 43.0691C139.222 43.9744 139.228 44.9318 139.016 45.8178C138.817 46.6464 138.393 47.3261 137.684 47.7574C137.359 47.9549 137.01 48.1033 136.658 48.2389C136.312 48.3726 135.965 48.5025 135.602 48.5775C134.916 48.7194 134.125 48.695 133.596 48.1486C133.405 47.9516 133.196 47.7041 133.057 47.4635C133.007 47.3769 132.977 47.3203 133.037 47.2357C133.11 47.1344 133.228 47.0568 133.321 46.9776C133.854 46.5257 134.184 45.9224 134.268 45.2055C134.352 44.4781 134.156 43.5393 133.449 43.2218C132.576 42.83 131.615 43.2798 130.839 43.699C130.509 42.5352 129.832 41.4873 128.771 40.9534C127.596 40.3628 126.248 40.2937 125.042 39.7869C124.727 39.6549 124.407 39.505 124.175 39.2359C124.079 39.1235 123.965 38.9776 123.927 38.8289C123.876 38.6335 124.002 38.4697 124.099 38.3175C124.615 37.5099 126.572 35.8784 127.591 35.5679Z" fill="#06445A"/>
<path fill-rule="evenodd" clip-rule="evenodd" d="M102.268 108.018C102.845 114.334 102.268 127.912 101.957 131.829C101.762 134.29 98.4069 133.646 98.0937 131.676C98.0407 131.342 97.8245 130.17 97.502 128.42C95.9203 119.841 92.0073 103.959 92 98.4999C91.9966 95.9964 97.3437 87.4245 99.5733 90.4485C101.406 89.161 104.008 88.8157 105.613 91.4162C106.827 93.385 109.713 98.9741 112.79 105.501C115.486 111.218 119.698 125.098 119.698 125.098L116.122 126.732C116.122 126.732 107.288 112.528 101.726 102.569C101.91 104.283 102.094 106.118 102.268 108.018Z" fill="#FEC6C6"/>
<path fill-rule="evenodd" clip-rule="evenodd" d="M119.443 119.959L107.168 90.8806C104.227 86.1504 95.9827 91.8433 96.9855 94.5869C99.2622 100.815 110.841 120.98 111.519 122.836L119.443 119.959Z" fill="#191847"/>
<path fill-rule="evenodd" clip-rule="evenodd" d="M91.4632 94.2C91.4632 102.442 95.0759 121.816 95.0784 123.631L103.83 123.336C103.83 123.336 101.535 98.0693 101.895 97.8979C102.434 97.6411 123.989 100.881 130.453 101.126C139.775 101.479 143.632 95.7598 143.945 84.9067H125.887C125.887 84.9067 102.727 87.6715 95.4429 88.7525C92.3246 89.2155 91.4632 91.9296 91.4632 94.2Z" fill="#2F3676"/>
<path fill-rule="evenodd" clip-rule="evenodd" d="M119.263 124.057C119.551 123.835 119.971 123.883 120.174 124.185C120.544 124.735 121.065 125.568 121.192 126.08C121.395 126.895 121.513 128.526 121.513 128.526C120.568 128.762 104.519 132.763 104.519 132.763C104.519 132.763 103.31 130.739 104.694 130.208C106.078 129.678 106.987 129.301 106.987 129.301L114.008 123.811C114.145 123.703 114.345 123.73 114.449 123.871L115.264 124.976C115.264 124.976 116.739 125.263 117.565 125.057C118.068 124.932 118.782 124.43 119.263 124.057Z" fill="#E4E4E4"/>
<path fill-rule="evenodd" clip-rule="evenodd" d="M101.571 126.84C101.904 126.694 102.3 126.842 102.424 127.184C102.65 127.807 102.953 128.742 102.953 129.269C102.953 130.109 102.673 131.721 102.673 131.721C101.699 131.721 85.1582 131.721 85.1582 131.721C85.1582 131.721 84.4755 129.464 85.9464 129.284C87.4174 129.104 88.3904 128.959 88.3904 128.959L96.5312 125.33C96.691 125.258 96.8781 125.333 96.9447 125.495L97.468 126.764C97.468 126.764 98.8298 127.4 99.6811 127.4C100.199 127.4 101.014 127.086 101.571 126.84Z" fill="#E4E4E4"/>
<path d="M87.2708 131.721H101.556C102.156 131.721 102.643 132.207 102.643 132.808C102.643 133.408 102.156 133.894 101.556 133.894H87.2708C86.6706 133.894 86.1839 133.408 86.1839 132.808C86.1839 132.207 86.6706 131.721 87.2708 131.721Z" fill="#454545"/>
<path d="M147.982 89.7977C147.982 88.0826 146.591 86.6923 144.876 86.6923H111.648C109.933 86.6923 108.543 88.0826 108.543 89.7977V105.014H146.74C147.426 105.014 147.982 104.458 147.982 103.772V89.7977Z" fill="#454545"/>
<path fill-rule="evenodd" clip-rule="evenodd" d="M111.648 86.6923H110.967C109.446 86.6923 108.149 87.7938 107.903 89.2947L101.09 130.789H104.408" fill="#454545"/>
<path fill-rule="evenodd" clip-rule="evenodd" d="M102.643 137C99.5555 137 97.0529 134.497 97.0529 131.41C97.0529 128.323 99.5555 125.821 102.643 125.821C105.73 125.821 108.232 128.323 108.232 131.41C108.232 134.497 105.73 137 102.643 137Z" fill="#2A2A2A"/>
<path fill-rule="evenodd" clip-rule="evenodd" d="M120.344 112.778C120.344 125.812 130.91 136.379 143.945 136.379C156.979 136.379 167.546 125.812 167.546 112.778C167.546 99.743 156.979 89.1765 143.945 89.1765C130.91 89.1765 120.344 99.743 120.344 112.778ZM124.691 112.778C124.691 123.411 133.311 132.031 143.945 132.031C154.578 132.031 163.198 123.411 163.198 112.778C163.198 102.144 154.578 93.5241 143.945 93.5241C133.311 93.5241 124.691 102.144 124.691 112.778Z" fill="#2A2A2A"/>
<path d="M142.702 92.282H145.187V133.273H142.702V92.282Z" fill="#2A2A2A"/>
<path d="M129.013 98.7241L129.891 97.8457C130.134 97.6032 130.527 97.6032 130.769 97.8457L158.876 125.953C159.119 126.195 159.119 126.589 158.876 126.831L157.998 127.709C157.755 127.952 157.362 127.952 157.12 127.709L129.013 99.6024C128.77 99.3599 128.77 98.9666 129.013 98.7241Z" fill="#2A2A2A"/>
<path d="M123.449 113.399V112.157C123.449 111.814 123.727 111.536 124.07 111.536H163.819C164.162 111.536 164.44 111.814 164.44 112.157V113.399C164.44 113.742 164.162 114.02 163.819 114.02H124.07C123.727 114.02 123.449 113.742 123.449 113.399Z" fill="#2A2A2A"/>
<path d="M129.891 127.71L129.013 126.832C128.77 126.589 128.77 126.196 129.013 125.953L157.12 97.8462C157.362 97.6036 157.755 97.6036 157.998 97.8462L158.876 98.7245C159.119 98.967 159.119 99.3603 158.876 99.6028L130.769 127.71C130.527 127.952 130.134 127.952 129.891 127.71Z" fill="#2A2A2A"/>
<path fill-rule="evenodd" clip-rule="evenodd" d="M100.668 49.4156L112.438 52.9491L109.433 57.9554L100.281 52.5695C96.009 52.3151 93.9904 51.8937 94.2255 51.3054C94.4237 50.8094 94.8955 50.7249 95.33 50.6471C95.6685 50.5864 95.9845 50.5298 96.1309 50.2859C96.4653 49.7288 95.2931 48.2787 94.1219 46.9501C92.9507 45.6215 93.888 45.5597 94.4541 45.6662C96.4006 46.4565 98.4718 47.7062 100.668 49.4156ZM103.573 80.9758L113.478 73.7017L115.668 79.1148L105.859 83.1825C103.085 86.4414 101.533 87.7997 101.205 87.2581C100.928 86.801 101.145 86.3734 101.344 85.9796C101.499 85.6728 101.644 85.3865 101.537 85.1225C101.294 84.5204 99.4302 84.5837 97.6644 84.7194C95.8985 84.8554 96.4131 84.0695 96.8389 83.6816C98.6414 82.6028 100.886 81.7006 103.573 80.9758Z" fill="#FEC6C6"/>
<path fill-rule="evenodd" clip-rule="evenodd" d="M128.864 54.1125C123.47 64.1706 115.67 71.8811 104.361 79.8965L108.643 84.7244C121.27 80.0322 127.933 77.201 131.206 67.6981C132.027 65.3128 132.601 57.7098 133.094 53.7094L128.864 54.1125Z" fill="#FFCE01"/>
<path fill-rule="evenodd" clip-rule="evenodd" d="M143.945 87.6239H120.033C120.033 87.6239 128.158 62.8452 128.334 53.6108C128.34 53.2969 128.919 52.7439 129.176 52.8163C131.989 53.6108 135.196 52.2222 135.196 52.2222C140.865 61.339 142.825 72.5642 143.945 87.6239Z" fill="#454545"/>
<path fill-rule="evenodd" clip-rule="evenodd" d="M129.198 66.1316C125.464 82.1512 125.636 95.2651 133.881 95.2651H146.631C148.656 81.6565 143.333 62.788 138.4 53.2708C138.211 52.9073 137.81 52.2222 136.865 52.2222H133.16C133.159 52.2271 133.157 52.232 133.156 52.2369C132.041 52.246 130.813 52.2868 129.484 52.3309C122.639 52.5582 113.095 52.875 102.356 49.4273L101.09 55.7541C110.783 61.9881 120.598 66.8173 129.198 66.1316Z" fill="#FFCE01"/>
<defs>
<filter id="filter0_d" x="9.40521" y="146.977" width="30.6215" height="15.7752" filterUnits="userSpaceOnUse" color-interpolation-filters="sRGB">
<feFlood flood-opacity="0" result="BackgroundImageFix"/>
<feColorMatrix in="SourceAlpha" type="matrix" values="0 0 0 0 0 0 0 0 0 0 0 0 0 0 0 0 0 0 127 0" result="hardAlpha"/>
<feOffset dy="4"/>
<feGaussianBlur stdDeviation="2"/>
<feColorMatrix type="matrix" values="0 0 0 0 0 0 0 0 0 0 0 0 0 0 0 0 0 0 0.25 0"/>
<feBlend mode="normal" in2="BackgroundImageFix" result="effect1_dropShadow"/>
<feBlend mode="normal" in="SourceGraphic" in2="effect1_dropShadow" result="shape"/>
</filter>
<filter id="filter1_d" x="52.4234" y="146.977" width="30.6216" height="15.7752" filterUnits="userSpaceOnUse" color-interpolation-filters="sRGB">
<feFlood flood-opacity="0" result="BackgroundImageFix"/>
<feColorMatrix in="SourceAlpha" type="matrix" values="0 0 0 0 0 0 0 0 0 0 0 0 0 0 0 0 0 0 127 0" result="hardAlpha"/>
<feOffset dy="4"/>
<feGaussianBlur stdDeviation="2"/>
<feColorMatrix type="matrix" values="0 0 0 0 0 0 0 0 0 0 0 0 0 0 0 0 0 0 0.25 0"/>
<feBlend mode="normal" in2="BackgroundImageFix" result="effect1_dropShadow"/>
<feBlend mode="normal" in="SourceGraphic" in2="effect1_dropShadow" result="shape"/>
</filter>
<filter id="filter2_d" x="56.4234" y="146.977" width="26.6216" height="11.7752" filterUnits="userSpaceOnUse" color-interpolation-filters="sRGB">
<feFlood flood-opacity="0" result="BackgroundImageFix"/>
<feColorMatrix in="SourceAlpha" type="matrix" values="0 0 0 0 0 0 0 0 0 0 0 0 0 0 0 0 0 0 127 0" result="hardAlpha"/>
<feOffset dx="2" dy="2"/>
<feGaussianBlur stdDeviation="1"/>
<feColorMatrix type="matrix" values="0 0 0 0 0 0 0 0 0 0 0 0 0 0 0 0 0 0 0.1 0"/>
<feBlend mode="normal" in2="BackgroundImageFix" result="effect1_dropShadow"/>
<feBlend mode="normal" in="SourceGraphic" in2="effect1_dropShadow" result="shape"/>
</filter>
</defs>
</svg>
