<svg width="35" height="28" viewBox="0 0 35 28" fill="none" xmlns="http://www.w3.org/2000/svg">
<path d="M15.1136 10.1111H13.5227V8.55556C13.5227 8.143 13.3551 7.74734 13.0568 7.45561C12.7584 7.16389 12.3538 7 11.9318 7C11.5099 7 11.1052 7.16389 10.8069 7.45561C10.5085 7.74734 10.3409 8.143 10.3409 8.55556V10.1111H8.75C8.32806 10.1111 7.92341 10.275 7.62506 10.5667C7.3267 10.8584 7.15909 11.2541 7.15909 11.6667C7.15909 12.0792 7.3267 12.4749 7.62506 12.7666C7.92341 13.0583 8.32806 13.2222 8.75 13.2222H10.3409V14.7778C10.3409 15.1903 10.5085 15.586 10.8069 15.8777C11.1052 16.1694 11.5099 16.3333 11.9318 16.3333C12.3538 16.3333 12.7584 16.1694 13.0568 15.8777C13.3551 15.586 13.5227 15.1903 13.5227 14.7778V13.2222H15.1136C15.5356 13.2222 15.9402 13.0583 16.2386 12.7666C16.5369 12.4749 16.7045 12.0792 16.7045 11.6667C16.7045 11.2541 16.5369 10.8584 16.2386 10.5667C15.9402 10.275 15.5356 10.1111 15.1136 10.1111ZM34.8886 13.4556L34.7932 13.2844C34.7658 13.2075 34.7283 13.1343 34.6818 13.0667L30.8636 8.08889C30.4191 7.50931 29.8426 7.03889 29.1799 6.7149C28.5172 6.3909 27.7864 6.22222 27.0455 6.22222H23.8636V4.66667C23.8636 3.42899 23.3608 2.242 22.4657 1.36684C21.5707 0.491665 20.3567 0 19.0909 0H4.77273C3.50692 0 2.29296 0.491665 1.3979 1.36684C0.502839 2.242 0 3.42899 0 4.66667V21.7778C0 22.1903 0.167613 22.586 0.465966 22.8777C0.76432 23.1694 1.16897 23.3333 1.59091 23.3333H3.18182C3.18182 24.571 3.68466 25.758 4.57972 26.6332C5.47478 27.5083 6.68874 28 7.95455 28C9.22035 28 10.4343 27.5083 11.3294 26.6332C12.2244 25.758 12.7273 24.571 12.7273 23.3333H22.2727C22.2727 24.571 22.7756 25.758 23.6706 26.6332C24.5657 27.5083 25.7796 28 27.0455 28C28.3113 28 29.5252 27.5083 30.4203 26.6332C31.3153 25.758 31.8182 24.571 31.8182 23.3333H33.4091C33.831 23.3333 34.2357 23.1694 34.534 22.8777C34.8324 22.586 35 22.1903 35 21.7778V14C34.9966 13.8135 34.9589 13.629 34.8886 13.4556ZM7.95455 24.8889C7.63989 24.8889 7.33231 24.7977 7.07068 24.6267C6.80906 24.4558 6.60515 24.2129 6.48474 23.9286C6.36433 23.6444 6.33282 23.3316 6.39421 23.0299C6.45559 22.7281 6.60711 22.4509 6.8296 22.2334C7.0521 22.0158 7.33557 21.8677 7.64417 21.8077C7.95278 21.7476 8.27266 21.7785 8.56336 21.8962C8.85406 22.0139 9.10253 22.2133 9.27734 22.4691C9.45215 22.7249 9.54545 23.0257 9.54545 23.3333C9.54545 23.7459 9.37784 24.1416 9.07949 24.4333C8.78113 24.725 8.37648 24.8889 7.95455 24.8889ZM20.6818 20.2222H11.4864C11.039 19.741 10.4938 19.3565 9.88556 19.0934C9.27736 18.8303 8.61962 18.6944 7.95455 18.6944C7.28947 18.6944 6.63174 18.8303 6.02353 19.0934C5.41532 19.3565 4.87006 19.741 4.42273 20.2222H3.18182V4.66667C3.18182 4.25411 3.34943 3.85845 3.64778 3.56672C3.94614 3.275 4.35079 3.11111 4.77273 3.11111H19.0909C19.5128 3.11111 19.9175 3.275 20.2159 3.56672C20.5142 3.85845 20.6818 4.25411 20.6818 4.66667V20.2222ZM23.8636 9.33333H27.0455C27.2924 9.33333 27.536 9.38956 27.7569 9.49756C27.9778 9.60556 28.17 9.76236 28.3182 9.95555L30.2273 12.4444H23.8636V9.33333ZM27.0455 24.8889C26.7308 24.8889 26.4232 24.7977 26.1616 24.6267C25.9 24.4558 25.6961 24.2129 25.5756 23.9286C25.4552 23.6444 25.4237 23.3316 25.4851 23.0299C25.5465 22.7281 25.698 22.4509 25.9205 22.2334C26.143 22.0158 26.4265 21.8677 26.7351 21.8077C27.0437 21.7476 27.3636 21.7785 27.6543 21.8962C27.945 22.0139 28.1934 22.2133 28.3682 22.4691C28.5431 22.7249 28.6364 23.0257 28.6364 23.3333C28.6364 23.7459 28.4688 24.1416 28.1704 24.4333C27.872 24.725 27.4674 24.8889 27.0455 24.8889ZM31.8182 20.2222H30.5773C29.7307 19.3107 28.5501 18.7633 27.2925 18.6992C26.035 18.6351 24.8025 19.0595 23.8636 19.88V15.5556H31.8182V20.2222Z" fill="#3575FE"/>
</svg>
