<svg width="30" height="30" viewBox="0 0 30 30" fill="none" xmlns="http://www.w3.org/2000/svg">
<circle cx="15" cy="15" r="15" fill="#C7D9FF"/>
<path d="M11 7C10.7348 7 10.4804 7.10536 10.2929 7.29289C10.1053 7.48043 9.99997 7.73478 9.99997 8C9.99997 8.26522 10.1053 8.51957 10.2929 8.70711C10.4804 8.89464 10.7348 9 11 9C11.2652 9 11.5195 8.89464 11.7071 8.70711C11.8946 8.51957 12 8.26522 12 8C12 7.73478 11.8946 7.48043 11.7071 7.29289C11.5195 7.10536 11.2652 7 11 7V7ZM7.99997 8C7.99997 7.20435 8.31604 6.44129 8.87865 5.87868C9.44126 5.31607 10.2043 5 11 5C11.7956 5 12.5587 5.31607 13.1213 5.87868C13.6839 6.44129 14 7.20435 14 8C14 8.79565 13.6839 9.55871 13.1213 10.1213C12.5587 10.6839 11.7956 11 11 11C10.2043 11 9.44126 10.6839 8.87865 10.1213C8.31604 9.55871 7.99997 8.79565 7.99997 8V8ZM19 13C18.7348 13 18.4804 13.1054 18.2929 13.2929C18.1053 13.4804 18 13.7348 18 14C18 14.2652 18.1053 14.5196 18.2929 14.7071C18.4804 14.8946 18.7348 15 19 15C19.2652 15 19.5195 14.8946 19.7071 14.7071C19.8946 14.5196 20 14.2652 20 14C20 13.7348 19.8946 13.4804 19.7071 13.2929C19.5195 13.1054 19.2652 13 19 13ZM16 14C16 13.2044 16.316 12.4413 16.8786 11.8787C17.4413 11.3161 18.2043 11 19 11C19.7956 11 20.5587 11.3161 21.1213 11.8787C21.6839 12.4413 22 13.2044 22 14C22 14.7956 21.6839 15.5587 21.1213 16.1213C20.5587 16.6839 19.7956 17 19 17C18.2043 17 17.4413 16.6839 16.8786 16.1213C16.316 15.5587 16 14.7956 16 14ZM11 19C10.7348 19 10.4804 19.1054 10.2929 19.2929C10.1053 19.4804 9.99997 19.7348 9.99997 20C9.99997 20.2652 10.1053 20.5196 10.2929 20.7071C10.4804 20.8946 10.7348 21 11 21C11.2652 21 11.5195 20.8946 11.7071 20.7071C11.8946 20.5196 12 20.2652 12 20C12 19.7348 11.8946 19.4804 11.7071 19.2929C11.5195 19.1054 11.2652 19 11 19V19ZM7.99997 20C7.99997 19.2044 8.31604 18.4413 8.87865 17.8787C9.44126 17.3161 10.2043 17 11 17C11.7956 17 12.5587 17.3161 13.1213 17.8787C13.6839 18.4413 14 19.2044 14 20C14 20.7956 13.6839 21.5587 13.1213 22.1213C12.5587 22.6839 11.7956 23 11 23C10.2043 23 9.44126 22.6839 8.87865 22.1213C8.31604 21.5587 7.99997 20.7956 7.99997 20Z" fill="#3575FE"/>
<path d="M6 8C6 7.73478 6.10536 7.48043 6.29289 7.29289C6.48043 7.10536 6.73478 7 7 7H9C9.26522 7 9.51957 7.10536 9.70711 7.29289C9.89464 7.48043 10 7.73478 10 8C10 8.26522 9.89464 8.51957 9.70711 8.70711C9.51957 8.89464 9.26522 9 9 9H7C6.73478 9 6.48043 8.89464 6.29289 8.70711C6.10536 8.51957 6 8.26522 6 8ZM12 8C12 7.73478 12.1054 7.48043 12.2929 7.29289C12.4804 7.10536 12.7348 7 13 7H23C23.2652 7 23.5196 7.10536 23.7071 7.29289C23.8946 7.48043 24 7.73478 24 8C24 8.26522 23.8946 8.51957 23.7071 8.70711C23.5196 8.89464 23.2652 9 23 9H13C12.7348 9 12.4804 8.89464 12.2929 8.70711C12.1054 8.51957 12 8.26522 12 8ZM6 14C6 13.7348 6.10536 13.4804 6.29289 13.2929C6.48043 13.1054 6.73478 13 7 13H17C17.2652 13 17.5196 13.1054 17.7071 13.2929C17.8946 13.4804 18 13.7348 18 14C18 14.2652 17.8946 14.5196 17.7071 14.7071C17.5196 14.8946 17.2652 15 17 15H7C6.73478 15 6.48043 14.8946 6.29289 14.7071C6.10536 14.5196 6 14.2652 6 14ZM20 14C20 13.7348 20.1054 13.4804 20.2929 13.2929C20.4804 13.1054 20.7348 13 21 13H23C23.2652 13 23.5196 13.1054 23.7071 13.2929C23.8946 13.4804 24 13.7348 24 14C24 14.2652 23.8946 14.5196 23.7071 14.7071C23.5196 14.8946 23.2652 15 23 15H21C20.7348 15 20.4804 14.8946 20.2929 14.7071C20.1054 14.5196 20 14.2652 20 14ZM6 20C6 19.7348 6.10536 19.4804 6.29289 19.2929C6.48043 19.1054 6.73478 19 7 19H9C9.26522 19 9.51957 19.1054 9.70711 19.2929C9.89464 19.4804 10 19.7348 10 20C10 20.2652 9.89464 20.5196 9.70711 20.7071C9.51957 20.8946 9.26522 21 9 21H7C6.73478 21 6.48043 20.8946 6.29289 20.7071C6.10536 20.5196 6 20.2652 6 20ZM12 20C12 19.7348 12.1054 19.4804 12.2929 19.2929C12.4804 19.1054 12.7348 19 13 19H23C23.2652 19 23.5196 19.1054 23.7071 19.2929C23.8946 19.4804 24 19.7348 24 20C24 20.2652 23.8946 20.5196 23.7071 20.7071C23.5196 20.8946 23.2652 21 23 21H13C12.7348 21 12.4804 20.8946 12.2929 20.7071C12.1054 20.5196 12 20.2652 12 20Z" fill="#3575FE"/>
</svg>
