<svg width="12" height="12" viewBox="0 0 12 12" fill="none" xmlns="http://www.w3.org/2000/svg">
<path d="M6 1.2C4.72696 1.2 3.50606 1.70571 2.60589 2.60589C1.70571 3.50606 1.2 4.72696 1.2 6C1.2 7.27304 1.70571 8.49394 2.60589 9.39411C3.50606 10.2943 4.72696 10.8 6 10.8C7.27304 10.8 8.49394 10.2943 9.39411 9.39411C10.2943 8.49394 10.8 7.27304 10.8 6C10.8 4.72696 10.2943 3.50606 9.39411 2.60589C8.49394 1.70571 7.27304 1.2 6 1.2ZM0 6C0 2.6862 2.6862 0 6 0C9.3138 0 12 2.6862 12 6C12 9.3138 9.3138 12 6 12C2.6862 12 0 9.3138 0 6Z" fill="#3575FE"/>
<path d="M5.99999 2.40002C6.15912 2.40002 6.31173 2.46324 6.42425 2.57576C6.53678 2.68828 6.59999 2.84089 6.59999 3.00002V5.25842C6.60005 5.36982 6.63112 5.479 6.68972 5.57374C6.74832 5.66848 6.83214 5.74503 6.93179 5.79482L8.66819 6.66362C8.74114 6.69732 8.80657 6.74533 8.86061 6.80479C8.91465 6.86426 8.9562 6.93398 8.98278 7.00981C9.00937 7.08563 9.02045 7.16603 9.01538 7.24622C9.0103 7.32642 8.98917 7.40477 8.95323 7.47664C8.9173 7.54851 8.86729 7.61244 8.80618 7.66461C8.74507 7.71679 8.67411 7.75616 8.59749 7.78039C8.52088 7.80462 8.44018 7.81321 8.36018 7.80566C8.28018 7.79811 8.20252 7.77456 8.13179 7.73642L6.39479 6.86822C6.09587 6.71871 5.84447 6.48892 5.66877 6.2046C5.49307 5.92028 5.4 5.59265 5.39999 5.25842V3.00002C5.39999 2.84089 5.4632 2.68828 5.57573 2.57576C5.68825 2.46324 5.84086 2.40002 5.99999 2.40002Z" fill="#3575FE"/>
</svg>
