<svg width="20" height="22" viewBox="0 0 20 22" fill="none" xmlns="http://www.w3.org/2000/svg">
<path d="M10 0C12.7625 0 15 2.18778 15 4.88889C15 7.59 12.7625 9.77778 10 9.77778C7.2375 9.77778 5 7.59 5 4.88889C5 2.18778 7.2375 0 10 0ZM15 12.8822C15 14.1778 14.65 17.1967 12.2625 20.57L11.25 14.6667L12.425 12.3689C11.65 12.2833 10.8375 12.2222 10 12.2222C9.1625 12.2222 8.35 12.2833 7.575 12.3689L8.75 14.6667L7.7375 20.57C5.35 17.1967 5 14.1778 5 12.8822C2.0125 13.7378 0 15.2778 0 17.1111V22H20V17.1111C20 15.2778 18 13.7378 15 12.8822Z" fill="#2C3458"/>
</svg>
