<svg width="20" height="23" viewBox="0 0 20 23" fill="none" xmlns="http://www.w3.org/2000/svg">
<path d="M10 0.394043C12.7625 0.394043 15 2.58182 15 5.28293C15 7.98404 12.7625 10.1718 10 10.1718C7.2375 10.1718 5 7.98404 5 5.28293C5 2.58182 7.2375 0.394043 10 0.394043ZM15 13.2763C15 14.5718 14.65 17.5907 12.2625 20.964L11.25 15.0607L12.425 12.7629C11.65 12.6774 10.8375 12.6163 10 12.6163C9.1625 12.6163 8.35 12.6774 7.575 12.7629L8.75 15.0607L7.7375 20.964C5.35 17.5907 5 14.5718 5 13.2763C2.0125 14.1318 0 15.6718 0 17.5052V22.394H20V17.5052C20 15.6718 18 14.1318 15 13.2763Z" fill="#3575FE"/>
</svg>
