<svg width="25" height="29" viewBox="0 0 25 29" fill="none" xmlns="http://www.w3.org/2000/svg">
<path d="M12.5 3.125C10.8424 3.125 9.25268 3.78348 8.08058 4.95558C6.90848 6.12768 6.25 7.7174 6.25 9.375C6.25 11.0326 6.90848 12.6223 8.08058 13.7944C9.25268 14.9665 10.8424 15.625 12.5 15.625C14.1576 15.625 15.7473 14.9665 16.9194 13.7944C18.0915 12.6223 18.75 11.0326 18.75 9.375C18.75 7.7174 18.0915 6.12768 16.9194 4.95558C15.7473 3.78348 14.1576 3.125 12.5 3.125ZM3.125 9.375C3.125 6.8886 4.11272 4.50403 5.87087 2.74587C7.62903 0.987721 10.0136 0 12.5 0C14.9864 0 17.371 0.987721 19.1291 2.74587C20.8873 4.50403 21.875 6.8886 21.875 9.375C21.875 11.8614 20.8873 14.246 19.1291 16.0041C17.371 17.7623 14.9864 18.75 12.5 18.75C10.0136 18.75 7.62903 17.7623 5.87087 16.0041C4.11272 14.246 3.125 11.8614 3.125 9.375Z" fill="#3575FE"/>
<path d="M3.31875 25H21.6812C20.8266 21.5672 17.2125 18.75 12.5 18.75C7.7875 18.75 4.17344 21.5672 3.31875 25ZM0 26.5625C0 20.3047 5.83125 15.625 12.5 15.625C19.1688 15.625 25 20.3047 25 26.5625C25 26.9769 24.8354 27.3743 24.5424 27.6674C24.2493 27.9604 23.8519 28.125 23.4375 28.125H1.5625C1.1481 28.125 0.750672 27.9604 0.457646 27.6674C0.16462 27.3743 0 26.9769 0 26.5625Z" fill="#3575FE"/>
</svg>
