<svg width="21" height="24" viewBox="0 0 21 24" fill="none" xmlns="http://www.w3.org/2000/svg">
<path d="M8.70212 0.903636C9.10442 0.574107 9.60841 0.394043 10.1284 0.394043C10.6485 0.394043 11.1525 0.574107 11.5548 0.903636L19.4043 7.30362C19.6714 7.52259 19.8865 7.79822 20.0339 8.11055C20.1814 8.42287 20.2575 8.76407 20.2569 9.10946V20.7184C20.2569 21.9976 19.2369 23.0343 17.978 23.0343H14.9394C13.6805 23.0343 12.6606 21.9976 12.6606 20.7184V15.14C12.6606 14.7141 12.3209 14.3685 11.9009 14.3685H8.35596C7.93653 14.3685 7.59633 14.7141 7.59633 15.14V20.719C7.59633 21.9982 6.57634 23.0349 5.31743 23.0349H2.2789C1.02059 23.0343 4.07332e-06 21.9976 4.07332e-06 20.7184V9.10946C-0.000641764 8.76407 0.0755197 8.42287 0.222975 8.11055C0.37043 7.79822 0.585488 7.52259 0.85258 7.30362L8.70212 0.903636Z" fill="#3575FE"/>
</svg>
