<svg width="21" height="23" viewBox="0 0 21 23" fill="none" xmlns="http://www.w3.org/2000/svg">
<path d="M8.70212 0.509593C9.10442 0.180064 9.60841 0 10.1284 0C10.6485 0 11.1525 0.180064 11.5548 0.509593L19.4043 6.90957C19.6714 7.12855 19.8865 7.40418 20.0339 7.7165C20.1814 8.02883 20.2575 8.37003 20.2569 8.71541V20.3244C20.2569 21.6035 19.2369 22.6402 17.978 22.6402H14.9394C13.6805 22.6402 12.6606 21.6035 12.6606 20.3244V14.746C12.6606 14.32 12.3209 13.9745 11.9009 13.9745H8.35596C7.93653 13.9745 7.59633 14.32 7.59633 14.746V20.325C7.59633 21.6041 6.57634 22.6408 5.31743 22.6408H2.2789C1.02059 22.6402 4.07332e-06 21.6035 4.07332e-06 20.3244V8.71541C-0.000641764 8.37003 0.0755197 8.02883 0.222975 7.7165C0.37043 7.40418 0.585488 7.12855 0.85258 6.90957L8.70212 0.509593Z" fill="#2C3458"/>
</svg>
