<svg width="25" height="28" viewBox="0 0 25 28" fill="none" xmlns="http://www.w3.org/2000/svg">
<path d="M7.14287 13.3438V11.1562C7.14287 10.7938 7.44271 10.5 7.81252 10.5H10.0447C10.4145 10.5 10.7143 10.7938 10.7143 11.1562V13.3438C10.7143 13.7062 10.4145 14 10.0447 14H7.81252C7.44271 14 7.14287 13.7062 7.14287 13.3438ZM14.9554 14H17.1875C17.5573 14 17.8572 13.7062 17.8572 13.3438V11.1562C17.8572 10.7938 17.5573 10.5 17.1875 10.5H14.9554C14.5856 10.5 14.2857 10.7938 14.2857 11.1562V13.3438C14.2857 13.7062 14.5856 14 14.9554 14ZM10.7143 18.5938V16.4062C10.7143 16.0438 10.4145 15.75 10.0447 15.75H7.81252C7.44271 15.75 7.14287 16.0438 7.14287 16.4062V18.5938C7.14287 18.9562 7.44271 19.25 7.81252 19.25H10.0447C10.4145 19.25 10.7143 18.9562 10.7143 18.5938ZM14.9554 19.25H17.1875C17.5573 19.25 17.8572 18.9562 17.8572 18.5938V16.4062C17.8572 16.0438 17.5573 15.75 17.1875 15.75H14.9554C14.5856 15.75 14.2857 16.0438 14.2857 16.4062V18.5938C14.2857 18.9562 14.5856 19.25 14.9554 19.25ZM25 26.0312V28H1.52588e-05V26.0312C1.52588e-05 25.6688 0.299848 25.375 0.669658 25.375H1.75783V4.65035C1.75783 4.01505 2.35744 3.5 3.09711 3.5H8.03573V1.3125C8.03573 0.587617 8.63534 0 9.37502 0H15.625C16.3647 0 16.9643 0.587617 16.9643 1.3125V3.5H21.9029C22.6426 3.5 23.2422 4.01505 23.2422 4.65035V25.375H24.3304C24.7002 25.375 25 25.6688 25 26.0312ZM4.4364 25.3203H10.7143V21.6562C10.7143 21.2938 11.0141 21 11.3839 21H13.6161C13.9859 21 14.2857 21.2938 14.2857 21.6562V25.3203H20.5636V6.125H16.9643V7.4375C16.9643 8.16238 16.3647 8.75 15.625 8.75H9.37502C8.63534 8.75 8.03573 8.16238 8.03573 7.4375V6.125H4.4364V25.3203ZM14.8438 3.5H13.3929V2.07812C13.3929 1.9911 13.3576 1.90764 13.2948 1.84611C13.232 1.78457 13.1469 1.75 13.0581 1.75H11.942C11.8532 1.75 11.768 1.78457 11.7052 1.84611C11.6424 1.90764 11.6072 1.9911 11.6072 2.07812V3.5H10.1563C10.0675 3.5 9.9823 3.53457 9.91951 3.59611C9.85672 3.65764 9.82144 3.7411 9.82144 3.82812V4.92188C9.82144 5.0089 9.85672 5.09236 9.91951 5.15389C9.9823 5.21543 10.0675 5.25 10.1563 5.25H11.6072V6.67188C11.6072 6.7589 11.6424 6.84236 11.7052 6.90389C11.768 6.96543 11.8532 7 11.942 7H13.0581C13.1469 7 13.232 6.96543 13.2948 6.90389C13.3576 6.84236 13.3929 6.7589 13.3929 6.67188V5.25H14.8438C14.9326 5.25 15.0177 5.21543 15.0805 5.15389C15.1433 5.09236 15.1786 5.0089 15.1786 4.92188V3.82812C15.1786 3.7411 15.1433 3.65764 15.0805 3.59611C15.0177 3.53457 14.9326 3.5 14.8438 3.5Z" fill="#3575FE"/>
</svg>
