<svg width="26" height="25" viewBox="0 0 26 25" fill="none" xmlns="http://www.w3.org/2000/svg">
<path d="M23.4 0.394043H2.6C1.17 0.394043 0.013 1.55633 0.013 2.97691L0 23.0974C0 24.2468 1.404 24.8279 2.223 24.0143L5.2 21.057H23.4C24.83 21.057 26 19.8947 26 18.4741V2.97691C26 1.55633 24.83 0.394043 23.4 0.394043ZM6.5 9.43407H19.5C20.215 9.43407 20.8 10.0152 20.8 10.7255C20.8 11.4358 20.215 12.0169 19.5 12.0169H6.5C5.785 12.0169 5.2 11.4358 5.2 10.7255C5.2 10.0152 5.785 9.43407 6.5 9.43407ZM14.3 15.8912H6.5C5.785 15.8912 5.2 15.3101 5.2 14.5998C5.2 13.8895 5.785 13.3084 6.5 13.3084H14.3C15.015 13.3084 15.6 13.8895 15.6 14.5998C15.6 15.3101 15.015 15.8912 14.3 15.8912ZM19.5 8.14264H6.5C5.785 8.14264 5.2 7.56149 5.2 6.85121C5.2 6.14092 5.785 5.55977 6.5 5.55977H19.5C20.215 5.55977 20.8 6.14092 20.8 6.85121C20.8 7.56149 20.215 8.14264 19.5 8.14264Z" fill="#3575FE"/>
</svg>
