<svg width="26" height="24" viewBox="0 0 26 24" fill="none" xmlns="http://www.w3.org/2000/svg">
<path d="M23.4 0H2.6C1.17 0 0.013 1.16229 0.013 2.58287L0 22.7034C0 23.8528 1.404 24.4339 2.223 23.6203L5.2 20.6629H23.4C24.83 20.6629 26 19.5006 26 18.0801V2.58287C26 1.16229 24.83 0 23.4 0ZM6.5 9.04003H19.5C20.215 9.04003 20.8 9.62117 20.8 10.3315C20.8 11.0417 20.215 11.6229 19.5 11.6229H6.5C5.785 11.6229 5.2 11.0417 5.2 10.3315C5.2 9.62117 5.785 9.04003 6.5 9.04003ZM14.3 15.4972H6.5C5.785 15.4972 5.2 14.916 5.2 14.2058C5.2 13.4955 5.785 12.9143 6.5 12.9143H14.3C15.015 12.9143 15.6 13.4955 15.6 14.2058C15.6 14.916 15.015 15.4972 14.3 15.4972ZM19.5 7.7486H6.5C5.785 7.7486 5.2 7.16745 5.2 6.45716C5.2 5.74688 5.785 5.16573 6.5 5.16573H19.5C20.215 5.16573 20.8 5.74688 20.8 6.45716C20.8 7.16745 20.215 7.7486 19.5 7.7486Z" fill="#2C3458"/>
</svg>
