<svg width="28" height="28" viewBox="0 0 28 28" fill="none" xmlns="http://www.w3.org/2000/svg">
<path d="M25.6747 2.32539C24.1855 0.836452 22.1658 0 20.0599 0C17.954 0 15.9343 0.836452 14.445 2.32539L2.40879 14.3616C1.65365 15.095 1.05185 15.9712 0.638383 16.9393C0.224914 17.9073 0.00802707 18.9479 0.000334162 20.0005C-0.00735875 21.0531 0.194296 22.0968 0.593572 23.0708C0.992848 24.0448 1.58178 24.9297 2.32612 25.674C3.07045 26.4183 3.95535 27.0073 4.92933 27.4066C5.90332 27.8058 6.94697 28.0075 7.9996 27.9998C9.05222 27.9921 10.0928 27.7752 11.0609 27.3617C12.0289 26.9483 12.9051 26.3465 13.6385 25.5913L25.6747 13.5551C27.1637 12.0658 28.0001 10.0461 28.0001 7.94024C28.0001 5.83433 27.1637 3.81465 25.6747 2.32539ZM11.436 23.4043C10.5116 24.2781 9.28785 24.7649 8.01588 24.7649C6.74391 24.7649 5.52017 24.2781 4.59579 23.4043C3.69313 22.4949 3.18658 21.2656 3.18658 19.9842C3.18658 18.7029 3.69313 17.4735 4.59579 16.5641L9.52817 11.6318L16.3684 18.472L11.436 23.4043ZM23.4877 11.3526L18.5553 16.285L11.7152 9.44477L16.6475 4.51239C17.5643 3.6536 18.779 3.18491 20.035 3.20539C21.2909 3.22588 22.4897 3.73393 23.378 4.62215C24.2662 5.51038 24.7742 6.70918 24.7947 7.96516C24.8152 9.22113 24.3465 10.4359 23.4877 11.3526Z" fill="#3575FE"/>
</svg>
