<svg width="22" height="18" viewBox="0 0 22 18" fill="none" xmlns="http://www.w3.org/2000/svg">
<path fill-rule="evenodd" clip-rule="evenodd" d="M0.4375 2H13.5625C13.804 2 14 1.553 14 1C14 0.447 13.804 0 13.5625 0H0.4375C0.196 0 0 0.447 0 1C0 1.553 0.195563 2 0.4375 2ZM7.46875 18H21.5312C21.79 18 22 17.553 22 17C22 16.447 21.79 16 21.5312 16H7.46875C7.21 16 7 16.447 7 17C7 17.553 7.20953 18 7.46875 18ZM21.3125 10H0.6875C0.307313 10 0 9.553 0 9C0 8.447 0.308 8 0.6875 8H21.3125C21.692 8 22 8.447 22 9C22 9.553 21.692 10 21.3125 10Z" fill="#2C3458"/>
</svg>
